# xmcd
#
# Track frame offsets: 
#        150
#        12567
#        24812
#        37770
#        50642
#        64022
#        77097
#        89600
#        102237
#        115010
#        129580
#        142837
#        157565
#        170315
#        184062
#        196632
#        209765
#        222597
#        235487
#        247297
#        260007
#        271770
#        287450
#        300270
#        314225
#        327609
#
# Disc length: 4527 seconds
#
# Revision: 0
# Processed by: cddbd v1.5.2PL0 Copyright (c) Steve Scherf et al.
# Submitted via: ExactAudioCopy v1.0b3
#
DISCID=7211ad1a
DTITLE=Rev D.C. Rice - Rev D.C. Rice - Complete Recorded Works In Chro
DTITLE=nological Order 1928-1930
DYEAR=2007
DGENRE=Gospel
TTITLE0=The Angels Rolled The Stone Away
TTITLE1=A Sure Foundation
TTITLE2=Come And See
TTITLE3=Lord Keep Me With A Mind
TTITLE4=Leaving All To Follow Jesus
TTITLE5=Shall Not A Dog Move His Tongue
TTITLE6=Take My Yoke Upon You
TTITLE7=The Wise And The Foolish Virgins
TTITLE8=The Sure Foundation ~ Part 2
TTITLE9=I Will Arise And Go To My Father
TTITLE10=He's Got His Eyes On You
TTITLE11=I'm In The Battlefield For My Lord
TTITLE12=I'm Pressing On
TTITLE13=No Night Here
TTITLE14=Sin Is To Blame
TTITLE15=Tell It Over Again
TTITLE16=Who Do You Call That Wonderful Counsellor
TTITLE17=I Mean To Live So God Can Use Me
TTITLE18=Were You There When They Crucified My Lord?
TTITLE19=He Arose Them From The Dead
TTITLE20=Testify For My Lord Is Coming Back Again
TTITLE21=When I Take My Vacation In Heaven
TTITLE22=A Woman Went One Thousand Miles To See A Man
TTITLE23=I'm Gonna Wait Right Here Till He Comes
TTITLE24=We Got The Same Kinda Power Over Here
TTITLE25=New Born Again
EXTD=
EXTT0=
EXTT1=
EXTT2=
EXTT3=
EXTT4=
EXTT5=
EXTT6=
EXTT7=
EXTT8=
EXTT9=
EXTT10=
EXTT11=
EXTT12=
EXTT13=
EXTT14=
EXTT15=
EXTT16=
EXTT17=
EXTT18=
EXTT19=
EXTT20=
EXTT21=
EXTT22=
EXTT23=
EXTT24=
EXTT25=
PLAYORDER=
